<svg width="120" height="120" viewBox="0 0 120 120" fill="none" xmlns="http://www.w3.org/2000/svg">
  <path d="M60 20C65.5228 20 70 15.5228 70 10C70 4.47715 65.5228 0 60 0C54.4772 0 50 4.47715 50 10C50 15.5228 54.4772 20 60 20Z" fill="#C7F6D4"/>
  <path d="M90 50C95.5228 50 100 45.5228 100 40C100 34.4772 95.5228 30 90 30C84.4772 30 80 34.4772 80 40C80 45.5228 84.4772 50 90 50Z" fill="#C7F6D4"/>
  <path d="M110 80C115.523 80 120 75.5228 120 70C120 64.4772 115.523 60 110 60C104.477 60 100 64.4772 100 70C100 75.5228 104.477 80 110 80Z" fill="#C7F6D4"/>
  <path d="M80 110C85.5228 110 90 105.523 90 100C90 94.4772 85.5228 90 80 90C74.4772 90 70 94.4772 70 100C70 105.523 74.4772 110 80 110Z" fill="#C7F6D4"/>
  <path d="M40 110C45.5228 110 50 105.523 50 100C50 94.4772 45.5228 90 40 90C34.4772 90 30 94.4772 30 100C30 105.523 34.4772 110 40 110Z" fill="#C7F6D4"/>
  <path d="M10 80C15.5228 80 20 75.5228 20 70C20 64.4772 15.5228 60 10 60C4.47715 60 0 64.4772 0 70C0 75.5228 4.47715 80 10 80Z" fill="#C7F6D4"/>
  <path d="M30 50C35.5228 50 40 45.5228 40 40C40 34.4772 35.5228 30 30 30C24.4772 30 20 34.4772 20 40C20 45.5228 24.4772 50 30 50Z" fill="#C7F6D4"/>
  <path d="M60 90C74.8528 90 87 77.8528 87 63C87 48.1472 74.8528 36 60 36C45.1472 36 33 48.1472 33 63C33 77.8528 45.1472 90 60 90Z" fill="#FFD1DC"/>
</svg>

