<svg width="100" height="100" viewBox="0 0 100 100" fill="none" xmlns="http://www.w3.org/2000/svg">
  <path d="M50 16.6667C54.6024 16.6667 58.3333 12.9357 58.3333 8.33333C58.3333 3.73096 54.6024 0 50 0C45.3976 0 41.6667 3.73096 41.6667 8.33333C41.6667 12.9357 45.3976 16.6667 50 16.6667Z" fill="#FFFACD"/>
  <path d="M75 41.6667C79.6024 41.6667 83.3333 37.9357 83.3333 33.3333C83.3333 28.731 79.6024 25 75 25C70.3976 25 66.6667 28.731 66.6667 33.3333C66.6667 37.9357 70.3976 41.6667 75 41.6667Z" fill="#FFFACD"/>
  <path d="M91.6667 66.6667C96.269 66.6667 100 62.9357 100 58.3333C100 53.731 96.269 50 91.6667 50C87.0643 50 83.3333 53.731 83.3333 58.3333C83.3333 62.9357 87.0643 66.6667 91.6667 66.6667Z" fill="#FFFACD"/>
  <path d="M66.6667 91.6667C71.269 91.6667 75 87.9357 75 83.3333C75 78.731 71.269 75 66.6667 75C62.0643 75 58.3333 78.731 58.3333 83.3333C58.3333 87.9357 62.0643 91.6667 66.6667 91.6667Z" fill="#FFFACD"/>
  <path d="M33.3333 91.6667C37.9357 91.6667 41.6667 87.9357 41.6667 83.3333C41.6667 78.731 37.9357 75 33.3333 75C28.731 75 25 78.731 25 83.3333C25 87.9357 28.731 91.6667 33.3333 91.6667Z" fill="#FFFACD"/>
  <path d="M8.33333 66.6667C12.9357 66.6667 16.6667 62.9357 16.6667 58.3333C16.6667 53.731 12.9357 50 8.33333 50C3.73096 50 0 53.731 0 58.3333C0 62.9357 3.73096 66.6667 8.33333 66.6667Z" fill="#FFFACD"/>
  <path d="M25 41.6667C29.6024 41.6667 33.3333 37.9357 33.3333 33.3333C33.3333 28.731 29.6024 25 25 25C20.3976 25 16.6667 28.731 16.6667 33.3333C16.6667 37.9357 20.3976 41.6667 25 41.6667Z" fill="#FFFACD"/>
  <path d="M50 75C62.3767 75 72.5 64.8767 72.5 52.5C72.5 40.1233 62.3767 30 50 30C37.6233 30 27.5 40.1233 27.5 52.5C27.5 64.8767 37.6233 75 50 75Z" fill="#FFD1DC"/>
</svg>

